<svg xmlns="http://www.w3.org/2000/svg" width="54" height="22" viewBox="0 0 54 22">
    <defs>
        <filter id="mn367lsz8a">
            <feColorMatrix in="SourceGraphic" values="0 0 0 0 0.846984 0 0 0 0 0.847107 0 0 0 0 0.846958 0 0 0 1.000000 0"/>
        </filter>
    </defs>
    <g fill="none" fill-rule="evenodd">
        <g>
            <g filter="url(#mn367lsz8a)" transform="translate(-767 -382)">
                <g>
                    <path fill="#000" fill-rule="nonzero" d="M9.76 2.826c-.626.74-1.627 1.324-2.628 1.24-.125-1 .365-2.064.938-2.721C8.696.584 9.79.042 10.677 0c.104 1.043-.303 2.064-.918 2.826m.907 1.438c-1.449-.083-2.69.824-3.378.824-.698 0-1.752-.782-2.898-.761-1.491.02-2.878.865-3.64 2.21C-.812 9.227.345 13.21 1.857 15.4c.74 1.084 1.626 2.273 2.794 2.231 1.105-.041 1.543-.72 2.878-.72 1.345 0 1.73.72 2.899.7 1.209-.021 1.97-1.085 2.71-2.17.845-1.23 1.19-2.429 1.21-2.491-.02-.021-2.336-.907-2.356-3.577-.021-2.23 1.824-3.294 1.908-3.357-1.043-1.543-2.67-1.71-3.233-1.752m8.373-3.023v16.255h2.523v-5.558h3.493c3.19 0 5.432-2.19 5.432-5.359 0-3.17-2.2-5.338-5.349-5.338h-6.1zm2.523 2.127h2.91c2.189 0 3.44 1.168 3.44 3.222 0 2.054-1.251 3.232-3.451 3.232h-2.899V3.368zM35.096 17.62c1.585 0 3.055-.803 3.722-2.075h.052v1.95h2.336V9.405c0-2.346-1.877-3.858-4.765-3.858-2.68 0-4.66 1.533-4.734 3.639h2.273c.188-1.001 1.116-1.658 2.388-1.658 1.543 0 2.408.72 2.408 2.044v.896l-3.149.188c-2.93.177-4.514 1.376-4.514 3.462 0 2.106 1.637 3.503 3.983 3.503zm.677-1.93c-1.345 0-2.2-.646-2.2-1.636 0-1.022.824-1.616 2.399-1.71l2.804-.177v.917c0 1.523-1.293 2.607-3.003 2.607zm8.55 6.226c2.46 0 3.618-.939 4.63-3.785l4.43-12.429H50.82l-2.972 9.603h-.052l-2.971-9.603h-2.638l4.275 11.834-.23.72c-.386 1.22-1.011 1.689-2.127 1.689-.198 0-.584-.02-.74-.042v1.95c.146.042.772.063.96.063z" transform="translate(767 382)"/>
                </g>
            </g>
        </g>
    </g>
</svg>
