<svg xmlns="http://www.w3.org/2000/svg" width="28" height="28" viewBox="0 0 28 28">
    <defs>
        <filter id="d96yxaz91a">
            <feColorMatrix in="SourceGraphic" values="0 0 0 0 0.882353 0 0 0 0 0.023529 0 0 0 0 0.000000 0 0 0 1.000000 0"/>
        </filter>
    </defs>
    <g fill="none" fill-rule="evenodd">
        <g>
            <g>
                <g filter="url(#d96yxaz91a)" transform="translate(-1241 -443) translate(1221 431)">
                    <g fill="#000" fill-rule="nonzero">
                        <path d="M14 28c7.72 0 14-6.28 14-14S21.72 0 14 0 0 6.28 0 14s6.28 14 14 14zm0-26.752c7.031 0 12.752 5.72 12.752 12.752 0 7.031-5.72 12.752-12.752 12.752-7.031 0-12.752-5.72-12.752-12.752C1.248 6.969 6.968 1.248 14 1.248z" transform="translate(20 12)"/>
                        <path d="M10.55 12.742c1.427 0 2.584-1.158 2.584-2.585 0-1.428-1.157-2.585-2.585-2.585s-2.585 1.157-2.585 2.585c.002 1.427 1.158 2.583 2.585 2.585zm0-3.922c.737 0 1.336.598 1.336 1.337 0 .738-.598 1.336-1.337 1.336-.738 0-1.336-.598-1.336-1.336 0-.738.598-1.336 1.336-1.337zM14.71 18c0 1.428 1.157 2.585 2.584 2.585 1.428 0 2.585-1.157 2.585-2.585s-1.157-2.585-2.585-2.585c-1.427.002-2.583 1.158-2.585 2.585zm3.921 0c0 .738-.598 1.337-1.337 1.337-.738 0-1.336-.599-1.336-1.337s.598-1.336 1.336-1.337c.738.001 1.336.6 1.337 1.337zM9.247 21.288c.289.188.676.107.864-.182l8.824-13.53c.122-.187.135-.425.035-.624-.101-.2-.301-.33-.524-.341-.223-.012-.435.096-.557.283l-8.824 13.53c-.188.289-.107.676.182.864z" transform="translate(20 12)"/>
                    </g>
                </g>
            </g>
        </g>
    </g>
</svg>
