<svg xmlns="http://www.w3.org/2000/svg" width="56" height="22" viewBox="0 0 56 22">
    <defs>
        <filter id="hd1ezx0tza">
            <feColorMatrix in="SourceGraphic" values="0 0 0 0 0.847000 0 0 0 0 0.847000 0 0 0 0 0.847000 0 0 0 1.000000 0"/>
        </filter>
    </defs>
    <g fill="none" fill-rule="evenodd">
        <g>
            <g filter="url(#hd1ezx0tza)" transform="translate(-701 -382)">
                <g fill-rule="nonzero">
                    <path fill="#5F6368" d="M26.071 10.694v6.417h-2.035V1.264h5.398c1.302-.027 2.56.467 3.496 1.372.947.852 1.48 2.071 1.46 3.344.028 1.28-.505 2.51-1.46 3.364-.944.9-2.109 1.35-3.496 1.349h-3.363v.001zm0-7.479v5.532h3.414c.757.022 1.488-.275 2.014-.82.523-.508.818-1.206.818-1.936s-.295-1.428-.818-1.936c-.52-.556-1.253-.862-2.014-.841h-3.414v.001zM39.082 5.915c1.504 0 2.692.402 3.563 1.206.87.804 1.305 1.907 1.304 3.308v6.682h-1.947v-1.505h-.088c-.843 1.24-1.964 1.859-3.363 1.859-1.195 0-2.194-.354-2.998-1.062-.782-.658-1.225-1.634-1.206-2.656 0-1.121.424-2.014 1.272-2.676.847-.663 1.98-.995 3.396-.997 1.208 0 2.204.222 2.986.664v-.465c.005-.696-.304-1.358-.84-1.802-.54-.485-1.24-.75-1.966-.742-1.137 0-2.036.48-2.699 1.439l-1.793-1.13c.986-1.415 2.446-2.123 4.379-2.123zm-2.634 7.877c-.003.525.249 1.02.675 1.327.45.354 1.01.542 1.582.531.859-.001 1.682-.343 2.29-.95.674-.635 1.011-1.38 1.011-2.235-.635-.505-1.52-.758-2.655-.758-.827 0-1.516.2-2.069.598-.557.404-.834.896-.834 1.487zM55.126 6.269L48.329 21.89 46.228 21.89 48.75 16.424 44.281 6.269 46.493 6.269 49.724 14.057 49.768 14.057 52.91 6.269z" transform="translate(701 382)"/>
                    <path fill="#4285F4" d="M17.845 9.31c.001-.62-.051-1.239-.156-1.85H9.103v3.506h4.918c-.204 1.131-.86 2.13-1.819 2.766v2.276h2.935c1.718-1.584 2.708-3.927 2.708-6.697z" transform="translate(701 382)"/>
                    <path fill="#34A853" d="M9.103 18.207c2.457 0 4.526-.807 6.034-2.198l-2.935-2.275c-.816.553-1.868.87-3.099.87-2.374 0-4.39-1.601-5.11-3.758H.97v2.345c1.545 3.075 4.692 5.016 8.133 5.016z" transform="translate(701 382)"/>
                    <path fill="#FBBC04" d="M3.993 10.846c-.381-1.13-.381-2.355 0-3.485V5.016H.97c-1.293 2.572-1.293 5.603 0 8.175l3.023-2.345z" transform="translate(701 382)"/>
                    <path fill="#EA4335" d="M9.103 3.603c1.299-.02 2.553.47 3.493 1.366l2.598-2.598C13.546.823 11.364-.026 9.104 0 5.661 0 2.514 1.94.97 5.016L3.993 7.36c.72-2.157 2.736-3.758 5.11-3.758z" transform="translate(701 382)"/>
                </g>
            </g>
        </g>
    </g>
</svg>
