<svg width="18" height="18" viewBox="0 0 18 18" fill="none" xmlns="http://www.w3.org/2000/svg">
<path fill-rule="evenodd" clip-rule="evenodd" d="M8.98618 0.0435791C10.3868 0.0435791 11.7132 0.369739 12.8945 0.948799C13.0801 1.03682 13.2651 1.13366 13.4507 1.24058L12.6296 1.97552L11.3958 0.699859L9.3136 2.5571L8.07682 1.20728L4.198 4.7036L6.6847 7.4441L5.70748 8.3036L8.15674 11.0482L7.18528 11.9058L10.6852 15.8015L12.7628 13.8888L14.559 15.9385C14.2017 16.2162 13.8125 16.4776 13.3838 16.7191C12.0849 17.4598 10.5837 17.8839 8.98618 17.8839C4.07326 17.8839 0.0662842 13.8764 0.0662842 8.96402C0.0662842 4.05056 4.07326 0.0435791 8.98618 0.0435791Z" fill="#0177B9"/>
<path fill-rule="evenodd" clip-rule="evenodd" d="M7.3606 8.40003L9.48172 6.48987L11.3917 8.61153L9.27076 10.521L7.3606 8.40003Z" fill="#0177B9"/>
<path fill-rule="evenodd" clip-rule="evenodd" d="M8.86877 12.0653L10.9901 10.1556L12.9002 12.2768L10.7791 14.1869L8.86877 12.0653Z" fill="#0177B9"/>
<path fill-rule="evenodd" clip-rule="evenodd" d="M5.84277 4.77778L7.96389 2.86816L9.87333 4.98928L7.75221 6.8989L5.84277 4.77778Z" fill="#0177B9"/>
<path fill-rule="evenodd" clip-rule="evenodd" d="M9.73511 3.74971L11.3259 2.31763L12.7582 3.90847L11.1674 5.34109L9.73511 3.74971Z" fill="#0177B9"/>
<path fill-rule="evenodd" clip-rule="evenodd" d="M12.5616 10.3105L14.153 8.87793L15.5853 10.4691L13.9944 11.9014L12.5616 10.3105Z" fill="#0177B9"/>
<path fill-rule="evenodd" clip-rule="evenodd" d="M13.9612 13.524L15.5517 12.0912L16.9843 13.682L15.3934 15.1143L13.9612 13.524Z" fill="#0177B9"/>
<path fill-rule="evenodd" clip-rule="evenodd" d="M14.6019 6.15925L15.6625 5.20435L16.6172 6.26491L15.5572 7.21963L14.6019 6.15925Z" fill="#0177B9"/>
<path fill-rule="evenodd" clip-rule="evenodd" d="M13.2469 3.00794L14.3075 2.05322L15.2624 3.11378L14.2017 4.0685L13.2469 3.00794Z" fill="#0177B9"/>
<path fill-rule="evenodd" clip-rule="evenodd" d="M15.9579 9.31037L17.0184 8.35547L17.9733 9.41585L16.9128 10.3707L15.9579 9.31037Z" fill="#0177B9"/>
<path fill-rule="evenodd" clip-rule="evenodd" d="M11.2015 6.94904L12.7922 5.51624L14.2245 7.10708L12.6342 8.53934L11.2015 6.94904Z" fill="#0177B9"/>
</svg>
