<svg width="19" height="19" viewBox="0 0 19 19" fill="none" xmlns="http://www.w3.org/2000/svg">
<path fill-rule="evenodd" clip-rule="evenodd" d="M18.4008 18.432C17.8845 17.3817 16.9689 16.6109 15.9767 16.0198C15.6328 15.8148 15.2443 15.6701 14.9058 15.5593C14.1272 15.3072 13.3737 15.2488 12.495 15.0986C11.7811 14.9765 11.2171 14.683 10.6118 14.2723C10.2966 14.0567 10.0387 13.7612 9.82331 13.4481C9.78319 13.385 9.58186 13.1398 9.60199 13.0556C9.60199 13.0556 9.46163 13.6173 9.73961 14.4057C7.18442 14.2912 4.94431 12.8745 3.91852 11.1572C2.02959 7.99712 2.69528 4.16732 5.21337 2.47599C7.73075 0.784098 11.5696 1.97764 13.6245 5.0316C14.9143 6.94823 15.2443 9.17801 14.6918 10.9916C14.6876 11.0056 14.6825 11.0189 14.6783 11.033C13.5865 10.239 12.5892 10.644 12.5892 10.644C13.6834 10.531 14.5486 11.4016 14.5486 11.4016C14.6756 11.5146 14.7977 11.6396 14.9087 11.7786C14.9333 11.8123 14.9592 11.8466 14.9839 11.8832C15.2704 12.2721 15.4493 12.7046 15.5252 13.1434C17.6977 10.3878 18.0567 6.57123 16.1341 3.60714C13.6854 -0.170766 8.46389 -1.13541 4.47535 1.44967C0.484794 4.03676 -0.763755 9.1934 1.68617 12.9707C3.69863 16.0787 8.41959 17.0266 11.1258 16.17C12.149 15.8484 15.6523 15.5423 18.091 18.4223C18.091 18.4223 18.3016 18.6631 18.4162 18.9376C18.4162 18.9376 18.45 19.0338 18.5404 18.9873C18.5643 18.9747 18.6316 18.8967 18.4008 18.432ZM13.3793 13.3315C13.3764 13.3295 13.3745 13.3295 13.3717 13.3273C13.366 13.3273 13.3619 13.3252 13.3581 13.3239C13.3519 13.3217 13.3469 13.319 13.3413 13.3175C13.338 13.3175 13.333 13.3175 13.3315 13.3161C13.3225 13.3132 13.3141 13.3112 13.3042 13.3076C13.191 13.2881 13.0787 13.3049 12.9855 13.3653C12.774 13.5092 12.7416 13.8343 12.9149 14.0932C12.9959 14.2106 13.104 14.2919 13.2205 14.337C13.2228 14.337 13.2248 14.337 13.2299 14.3397C13.2332 14.3404 13.2382 14.3433 13.2416 14.3433C13.2473 14.346 13.2529 14.346 13.2579 14.3474C13.2626 14.3474 13.2649 14.3496 13.2683 14.3509C13.2776 14.3531 13.2852 14.3565 13.2944 14.3572C13.4067 14.3797 13.5196 14.3636 13.6138 14.3004C13.8267 14.1565 13.859 13.8328 13.6854 13.5745C13.6053 13.4558 13.4966 13.373 13.3793 13.3315ZM14.7944 12.7348C14.6152 12.6681 14.5991 12.8794 14.6441 13.017C14.7437 13.3392 14.8792 13.5857 14.9783 13.6349C15.0729 13.6924 15.1852 13.5597 15.1136 13.2374C15.0828 13.0977 14.9768 12.8057 14.7944 12.7348Z" fill="#999999"/>
<path fill-rule="evenodd" clip-rule="evenodd" d="M18.4008 18.432C17.8845 17.3817 16.9689 16.6109 15.9767 16.0198C15.6328 15.8148 15.2443 15.6701 14.9058 15.5593C14.1272 15.3072 13.3737 15.2488 12.495 15.0986C11.7811 14.9765 11.2171 14.683 10.6118 14.2723C10.2966 14.0567 10.0387 13.7612 9.82331 13.4481C9.78319 13.385 9.58186 13.1398 9.60199 13.0556C9.60199 13.0556 9.46163 13.6173 9.73961 14.4057C7.18442 14.2912 4.94431 12.8745 3.91852 11.1572C2.02959 7.99712 2.69528 4.16732 5.21337 2.47599C7.73075 0.784098 11.5696 1.97764 13.6245 5.0316C14.9143 6.94823 15.2443 9.17801 14.6918 10.9916C14.6876 11.0056 14.6825 11.0189 14.6783 11.033C13.5865 10.239 12.5892 10.644 12.5892 10.644C13.6834 10.531 14.5486 11.4016 14.5486 11.4016C14.6756 11.5146 14.7977 11.6396 14.9087 11.7786C14.9333 11.8123 14.9592 11.8466 14.9839 11.8832C15.2704 12.2721 15.4493 12.7046 15.5252 13.1434C17.6977 10.3878 18.0567 6.57123 16.1341 3.60714C13.6854 -0.170766 8.46389 -1.13541 4.47535 1.44967C0.484794 4.03676 -0.763755 9.1934 1.68617 12.9707C3.69863 16.0787 8.41959 17.0266 11.1258 16.17C12.149 15.8484 15.6523 15.5423 18.091 18.4223C18.091 18.4223 18.3016 18.6631 18.4162 18.9376C18.4162 18.9376 18.45 19.0338 18.5404 18.9873C18.5643 18.9747 18.6316 18.8967 18.4008 18.432ZM13.3793 13.3315C13.3764 13.3295 13.3745 13.3295 13.3717 13.3273C13.366 13.3273 13.3619 13.3252 13.3581 13.3239C13.3519 13.3217 13.3469 13.319 13.3413 13.3175C13.338 13.3175 13.333 13.3175 13.3315 13.3161C13.3225 13.3132 13.3141 13.3112 13.3042 13.3076C13.191 13.2881 13.0787 13.3049 12.9855 13.3653C12.774 13.5092 12.7416 13.8343 12.9149 14.0932C12.9959 14.2106 13.104 14.2919 13.2205 14.337C13.2228 14.337 13.2248 14.337 13.2299 14.3397C13.2332 14.3404 13.2382 14.3433 13.2416 14.3433C13.2473 14.346 13.2529 14.346 13.2579 14.3474C13.2626 14.3474 13.2649 14.3496 13.2683 14.3509C13.2776 14.3531 13.2852 14.3565 13.2944 14.3572C13.4067 14.3797 13.5196 14.3636 13.6138 14.3004C13.8267 14.1565 13.859 13.8328 13.6854 13.5745C13.6053 13.4558 13.4966 13.373 13.3793 13.3315ZM14.7944 12.7348C14.6152 12.6681 14.5991 12.8794 14.6441 13.017C14.7437 13.3392 14.8792 13.5857 14.9783 13.6349C15.0729 13.6924 15.1852 13.5597 15.1136 13.2374C15.0828 13.0977 14.9768 12.8057 14.7944 12.7348Z" fill="#F39E26"/>
</svg>
