<svg width="16" height="20" viewBox="0 0 16 20" fill="none" xmlns="http://www.w3.org/2000/svg">
<path d="M0 9.18497C0 8.68289 0.407014 8.27588 0.909091 8.27588H15.0909C15.593 8.27588 16 8.68289 16 9.18497V19.0909C16 19.593 15.593 20 15.0909 20H0V9.18497Z" fill="#999999"/>
<path d="M0 9.18497C0 8.68289 0.407014 8.27588 0.909091 8.27588H15.0909C15.593 8.27588 16 8.68289 16 9.18497V19.0909C16 19.593 15.593 20 15.0909 20H0V9.18497Z" fill="#FACA20"/>
<path fill-rule="evenodd" clip-rule="evenodd" d="M13.2174 8.25586V15.031L0 20V8.25586H13.2174Z" fill="#D8D8D8"/>
<path fill-rule="evenodd" clip-rule="evenodd" d="M13.2174 8.25586V15.031L0 20V8.25586H13.2174Z" fill="#CAA521"/>
<path fill-rule="evenodd" clip-rule="evenodd" d="M11.1304 0.251587V13.5323L0 20V8.5453L11.1304 0.251587Z" fill="#FACA20"/>
<path fill-rule="evenodd" clip-rule="evenodd" d="M7.82162 9.51657C8.65343 9.03632 9.09617 8.2459 8.81051 7.75112C8.52484 7.25633 7.61895 7.24455 6.78714 7.7248C5.95532 8.20504 5.51258 8.99546 5.79825 9.49025C6.08391 9.98503 6.98981 9.99682 7.82162 9.51657Z" fill="#CDA821"/>
</svg>
