<svg width="123" height="20" viewBox="0 0 123 20" fill="none" xmlns="http://www.w3.org/2000/svg">
<path fill-rule="evenodd" clip-rule="evenodd" d="M118.275 9.90491L119.892 5.6193H122.994L120.935 10.4958C120.583 11.301 120.219 12.108 119.783 12.8731C118.408 15.2831 116.95 15.8864 114.274 15.3704L114.613 12.8986C115.397 13.261 116.62 13.2254 116.726 12.4665L112.926 5.6193H116.246L118.275 9.90491ZM34.6284 8.10437L35.0634 5.77588C31.5465 4.61801 27.4148 6.44609 27.4148 10.5451C27.4148 12.2734 28.1169 13.5532 29.2278 14.3825C30.9226 15.6475 33.4719 15.7287 35.4853 15.3312L35.1959 12.8912C33.2055 13.3993 30.3225 13.1466 30.3225 10.4665C30.3225 8.24914 32.7533 7.0823 34.6284 8.10437ZM41.2431 9.90491L42.8606 5.6193H45.963L43.9032 10.4958C43.5516 11.301 43.1879 12.108 42.7516 12.8731C41.3769 15.2831 39.9185 15.8864 37.2429 15.3704L37.5812 12.8986C38.3656 13.261 39.589 13.2254 39.6946 12.4665L35.8946 5.6193H39.215L41.2431 9.90491ZM46.6056 5.6193V8.05354H49.4028V15.2932H52.4165V8.05354H55.2137V5.6193H46.6056ZM60.6093 7.53818C61.9684 7.53818 62.5199 9.00212 62.5199 10.4464C62.5199 12.1873 61.7714 13.3544 60.6093 13.3544C59.3288 13.3544 58.6394 12.1081 58.6394 10.4464C58.6394 9.02195 59.1712 7.53818 60.6093 7.53818ZM60.6879 5.40167C57.5954 5.40167 55.5467 7.3997 55.5467 10.5254C55.5467 13.6512 57.7135 15.5108 60.5305 15.5108C63.1108 15.5108 65.6126 13.8885 65.6126 10.3474C65.6126 7.43936 63.6428 5.40167 60.6879 5.40167ZM66.5208 5.6193V8.82415C66.5208 12.2598 69.8598 13.2596 72.2136 11.7624H72.2529V15.2932H75.2471V5.6193H72.2529V9.754C71.9771 9.97147 71.4454 10.1694 70.9529 10.1694C69.9286 10.1694 69.515 9.61536 69.515 8.54719V5.6193H66.5208ZM77.2585 5.6193V15.2932H80.2525V11.525H83.2861V15.2932H86.3V5.6193H83.2861V9.05122H80.2525V5.6193H77.2585ZM92.8417 7.53818C94.2008 7.53818 94.7524 9.00212 94.7524 10.4464C94.7524 12.1873 94.0039 13.3544 92.8417 13.3544C91.5613 13.3544 90.8718 12.1081 90.8718 10.4464C90.8718 9.02195 91.4038 7.53818 92.8417 7.53818ZM92.9205 5.40167C89.8278 5.40167 87.7793 7.3997 87.7793 10.5254C87.7793 13.6512 89.946 15.5108 92.7629 15.5108C95.3434 15.5108 97.8451 13.8885 97.8451 10.3474C97.8451 7.43936 95.8753 5.40167 92.9205 5.40167ZM107.373 15.2932H104.428V5.52017C105.564 5.45077 108.682 5.27326 110.278 5.60986C110.784 5.71671 111.213 5.96991 111.567 6.22641C111.981 6.52571 112.299 6.8985 112.516 7.34494C112.734 7.79374 112.841 8.29037 112.841 8.83705C112.841 9.42023 112.734 9.93276 112.519 10.3748C112.304 10.819 111.988 11.1821 111.567 11.4659C110.454 12.2192 108.665 12.0674 107.373 12.0674V15.2932ZM107.373 9.99524C108.045 9.99524 108.84 10.0503 109.431 9.69404C109.722 9.5189 109.906 9.1834 109.906 8.75963C109.906 8.34954 109.725 8.02097 109.439 7.84803C108.851 7.49176 108.043 7.5514 107.373 7.5514V9.99524Z" fill="#000000"/>
<path fill-rule="evenodd" clip-rule="evenodd" d="M101.08 8.84808C102.01 8.84808 102.764 9.605 102.764 10.5388C102.764 11.4726 102.01 12.2295 101.08 12.2295C100.151 12.2295 99.397 11.4726 99.397 10.5388C99.397 9.605 100.151 8.84808 101.08 8.84808Z" fill="#D91F43"/>
<path fill-rule="evenodd" clip-rule="evenodd" d="M5.6729 3.17956C7.16551 3.11725 9.31402 2.01414 11.6035 1.54284C13.9015 1.06996 16.3114 0.989864 17.896 0.663652C19.9921 0.232165 20.7826 -0.327888 20.8865 0.601179C20.9139 0.844776 20.1137 1.39964 20.2032 1.83805C20.4299 2.9484 21.1855 4.3678 21.5057 5.93718C21.876 7.75141 21.8113 9.71797 22.0463 10.8691C22.2251 11.7451 23.6633 12.1404 22.7481 12.5761C21.5141 13.1633 21.4301 12.2496 20.1089 12.5215C19.9224 12.5599 19.7328 12.5557 19.5453 12.5127C19.2388 8.25261 18.3101 7.2148 18.0564 5.833C18.1641 5.58138 18.4427 5.2462 18.5309 5.01031C18.6821 4.60621 18.5732 4.23719 18.494 3.88848C17.8758 2.4911 16.3741 3.05886 16.3741 3.05886C16.3741 3.05886 15.0253 3.4208 13.562 3.68044C12.382 3.88974 11.1274 4.00083 10.4456 4.04568C8.91854 4.14592 4.91924 5.22621 4.97784 5.34109C4.86455 5.12503 4.79389 4.9598 4.7732 4.85814C4.62686 4.14199 3.45107 4.3143 3.46392 3.95599C3.48758 3.29459 3.68563 3.26233 5.6729 3.17956ZM16.6041 10.2269C16.6627 11.1345 16.5702 12.767 15.9612 13.8612C15.2956 15.0576 14.2838 15.738 14.2838 15.738C14.2838 15.738 15.8982 16.1236 16.7733 14.2808C17.6484 12.438 16.7432 10.4266 16.6041 10.2269ZM19.3163 16.4318C18.0895 17.0156 18.006 16.1072 16.6923 16.3775C15.0065 16.7245 12.649 17.6234 10.3016 18.1066C7.89223 18.6025 5.4982 18.6818 4.19361 18.9503C3.68407 19.0552 3.34374 19.9248 3.05575 19.7547C1.90644 19.076 3.06828 18.9927 2.8309 17.8294C2.59634 16.6801 1.79707 15.0346 1.44468 13.3072C1.11172 11.6754 1.67141 9.86888 1.44484 8.75821C1.29943 8.04615 0.130384 8.21751 0.143233 7.86125C0.166579 7.20363 0.363536 7.17169 2.33937 7.08939C3.82336 7.02738 5.95964 5.93057 8.23601 5.46194C10.5207 4.99174 12.9167 4.91212 14.4921 4.5878C16.5763 4.15883 17.3621 3.60208 17.4657 4.5258C17.4928 4.76782 16.6973 5.31969 16.7863 5.75542C17.0116 6.85948 17.7628 8.27086 18.0812 9.83111C18.4494 11.6348 18.385 13.5902 18.6186 14.7347C18.7965 15.6055 20.2264 15.9986 19.3163 16.4318Z" fill="#F51449"/>
</svg>
