<svg xmlns="http://www.w3.org/2000/svg" width="30" height="23" viewBox="0 0 30 23">
    <defs>
        <filter id="di1mges6za">
            <feColorMatrix in="SourceGraphic" values="0 0 0 0 0.717647 0 0 0 0 0.717647 0 0 0 0 0.717647 0 0 0 1.000000 0"/>
        </filter>
    </defs>
    <g fill="none" fill-rule="evenodd">
        <g>
            <g>
                <g filter="url(#di1mges6za)" transform="translate(-701 -268) translate(701 268)">
                    <g>
                        <path fill="#D8D8D8" fill-rule="nonzero" d="M3.8 3.37V1.936c0-.55-.334-.908-.908-.908-.286 0-.597.095-.812.406-.168-.263-.407-.406-.765-.406-.24 0-.478.072-.67.335v-.287H.143V3.37h.502V2.104c0-.407.216-.598.55-.598.335 0 .502.215.502.598V3.37H2.2V2.104c0-.407.24-.598.55-.598.335 0 .502.215.502.598V3.37h.55zm7.435-2.294h-.813V.382H9.92v.694h-.454v.454h.454v1.052c0 .526.215.836.79.836.214 0 .453-.071.62-.167l-.143-.43c-.143.095-.31.12-.43.12-.24 0-.335-.144-.335-.383V1.53h.813v-.454zm4.255-.048c-.287 0-.478.143-.598.335v-.287h-.502V3.37h.502V2.08c0-.383.168-.598.478-.598.096 0 .216.024.311.048l.144-.478c-.096-.024-.24-.024-.335-.024zm-6.43.239c-.24-.167-.574-.24-.933-.24-.573 0-.956.288-.956.742 0 .382.287.598.79.67l.238.023c.263.048.406.12.406.24 0 .166-.19.286-.525.286s-.598-.12-.765-.239l-.24.382c.264.192.622.287.98.287.67 0 1.052-.31 1.052-.74 0-.407-.31-.622-.788-.694l-.24-.024c-.215-.024-.382-.072-.382-.215 0-.167.167-.263.43-.263.287 0 .574.12.718.191l.215-.406zm13.338-.24c-.287 0-.478.144-.597.336v-.287h-.502V3.37h.502V2.08c0-.383.167-.598.478-.598.095 0 .215.024.31.048l.144-.478c-.096-.024-.24-.024-.335-.024zm-6.406 1.196c0 .693.478 1.195 1.219 1.195.335 0 .574-.071.813-.263l-.24-.406c-.19.143-.382.215-.597.215-.406 0-.693-.287-.693-.74 0-.431.287-.718.693-.742.215 0 .406.072.598.215l.239-.406c-.24-.191-.478-.263-.813-.263-.741 0-1.22.502-1.22 1.195zm4.637 0V1.076h-.502v.287c-.167-.216-.406-.335-.717-.335-.645 0-1.147.502-1.147 1.195 0 .693.502 1.195 1.147 1.195.335 0 .574-.12.717-.334v.286h.502V2.223zm-1.84 0c0-.406.263-.74.693-.74.406 0 .693.31.693.74 0 .406-.287.741-.693.741-.43-.024-.693-.335-.693-.74zm-6-1.195c-.67 0-1.148.478-1.148 1.195 0 .717.478 1.195 1.172 1.195.334 0 .669-.095.932-.31l-.24-.359c-.19.143-.43.239-.668.239-.311 0-.622-.143-.694-.55h1.697v-.191c.024-.741-.406-1.22-1.051-1.22zm0 .43c.31 0 .526.191.573.55h-1.195c.048-.31.263-.55.622-.55zm12.454.765V.167h-.502v1.196c-.168-.216-.407-.335-.717-.335-.646 0-1.148.502-1.148 1.195 0 .693.502 1.195 1.148 1.195.334 0 .573-.12.717-.334v.286h.502V2.223zm-1.84 0c0-.406.262-.74.692-.74.407 0 .694.31.694.74 0 .406-.287.741-.694.741-.43-.024-.693-.335-.693-.74zm-16.782 0V1.076H6.12v.287c-.167-.216-.406-.335-.717-.335-.645 0-1.147.502-1.147 1.195 0 .693.502 1.195 1.147 1.195.335 0 .574-.12.717-.334v.286h.502V2.223zm-1.864 0c0-.406.263-.74.693-.74.407 0 .693.31.693.74 0 .406-.286.741-.693.741-.43-.024-.693-.335-.693-.74z" transform="translate(1.462 18.414)"/>
                    </g>
                </g>
                <g fill-rule="nonzero">
                    <path fill="#D8D8D8" d="M10.327 2.056H17.857V15.585999999999999H10.327z" transform="translate(-701 -268) translate(701 268) translate(.028 .008)"/>
                    <path fill="#B7B7B7" d="M10.805 8.82c0-2.748 1.29-5.187 3.275-6.764C12.62.908 10.78.216 8.773.216 4.016.215.167 4.063.167 8.82c0 4.757 3.849 8.605 8.606 8.605 2.008 0 3.848-.693 5.307-1.84-1.985-1.554-3.275-4.016-3.275-6.765z" transform="translate(-701 -268) translate(701 268) translate(.028 .008)"/>
                    <path fill="#E3E3E3" d="M28.016 8.82c0 4.758-3.849 8.606-8.606 8.606-2.008 0-3.848-.693-5.307-1.84 2.008-1.578 3.275-4.016 3.275-6.765 0-2.75-1.29-5.188-3.275-6.765 1.459-1.148 3.3-1.84 5.307-1.84 4.757 0 8.606 3.872 8.606 8.605z" transform="translate(-701 -268) translate(701 268) translate(.028 .008)"/>
                </g>
            </g>
        </g>
    </g>
</svg>
